<svg width="2657" height="654" viewBox="0 0 2657 654" fill="none" xmlns="http://www.w3.org/2000/svg">
<path d="M1881.87 190C1919.02 190 1952.14 197 1981.21 210.999C2010.29 224.998 2033.71 244.651 2051.48 269.957C2067.75 293.128 2077.47 319.91 2080.65 350.303C2081.13 354.895 2077.46 358.799 2072.84 358.799H2000.37C1996.35 358.799 1992.98 355.797 1992.22 351.844C1987.92 329.62 1976.99 310.939 1959.41 295.802C1940.56 279.11 1914.72 270.765 1881.87 270.765C1853.34 270.765 1829.64 277.226 1810.8 290.148C1791.95 303.071 1777.96 321.108 1768.8 344.261C1759.65 366.875 1755.07 392.989 1755.07 422.603C1755.07 450.601 1759.65 476.177 1768.8 499.329C1777.96 521.943 1791.95 539.981 1810.8 553.441C1829.64 566.902 1853.61 573.633 1882.68 573.633C1905.29 573.633 1924.68 569.595 1940.83 561.519C1956.98 553.442 1969.91 542.673 1979.6 529.212C1988.46 517.549 1994.29 504.27 1997.09 489.374C1997.84 485.398 2001.22 482.368 2005.26 482.368H2077.83C2082.39 482.368 2086.05 486.184 2085.66 490.73C2082.93 522.234 2073.16 549.868 2056.32 573.633C2038.02 598.939 2013.79 618.592 1983.64 632.591C1954.02 646.59 1920.37 653.59 1882.68 653.59C1845.53 653.59 1813.22 647.398 1785.76 635.014C1758.3 622.091 1735.42 604.862 1717.11 583.324C1699.34 561.249 1685.88 537.02 1676.73 510.637C1667.58 483.715 1663 456.793 1663 429.871V414.526C1663 386.528 1667.58 359.337 1676.73 332.954C1685.88 306.033 1699.61 282.072 1717.92 261.073C1736.23 239.536 1758.84 222.306 1785.76 209.384C1813.22 196.461 1845.26 190 1881.87 190ZM2309.53 190C2361.01 190 2402.64 201.386 2434.41 224.159C2464.68 245.494 2481.26 276.11 2484.13 316.005C2484.45 320.49 2480.82 324.197 2476.32 324.197H2406.82C2402.5 324.197 2399.04 320.753 2398.24 316.515C2395.78 303.533 2388.12 292.267 2375.25 282.718C2360.47 270.789 2338.56 264.825 2309.53 264.825C2281.59 264.825 2259.96 270.518 2244.62 281.904C2229.83 292.748 2222.44 306.847 2222.44 324.197C2222.44 339.379 2227.92 351.578 2238.87 360.796C2250.37 369.471 2268.45 375.165 2293.1 377.876L2337.46 381.942C2386.76 387.365 2425.92 400.92 2454.95 422.608C2484.52 444.297 2499.31 474.66 2499.31 513.699C2499.31 541.352 2491.37 565.752 2475.49 586.898C2459.6 608.045 2437.42 624.582 2408.94 636.511C2381.01 647.897 2348.69 653.59 2311.99 653.59C2252.84 653.59 2206.83 641.391 2173.97 616.991C2143.2 593.641 2126.12 561.973 2122.71 521.989C2122.33 517.47 2125.98 513.699 2130.51 513.699H2200.42C2204.53 513.699 2207.91 516.83 2208.84 520.828C2212.04 534.422 2220.4 547.227 2233.94 559.245C2249.83 572.8 2275.84 579.578 2311.99 579.578C2344.31 579.578 2369.23 573.614 2386.76 561.686C2404.28 549.215 2413.05 533.761 2413.05 515.326C2413.05 498.518 2406.47 485.505 2393.33 476.287C2380.18 466.527 2358.55 460.021 2328.42 456.768L2284.06 452.701C2239.15 447.821 2203.27 434.808 2176.43 413.662C2150.14 391.974 2137 362.694 2137 325.824C2137 297.087 2144.39 272.687 2159.18 252.625C2173.97 232.563 2194.23 217.111 2219.98 206.267C2245.72 195.422 2275.57 190 2309.53 190ZM531.024 190C567.637 190 600.482 196.192 629.557 208.576C658.632 220.96 683.13 237.92 703.052 259.457C723.512 280.456 738.858 304.416 749.088 331.338C759.856 358.259 765.24 385.988 765.24 414.524V429.87C765.24 458.407 760.125 485.866 749.896 512.249C739.665 538.632 724.589 562.593 704.667 584.13C684.745 605.128 660.247 622.089 631.172 635.011C602.097 647.395 568.714 653.587 531.024 653.587C492.796 653.587 459.143 647.395 430.068 635.011C400.993 622.089 376.495 605.128 356.573 584.13C336.651 562.593 321.575 538.632 311.345 512.249C301.115 485.866 296 458.407 296 429.87V414.524C296 385.988 301.115 358.259 311.345 331.338C322.113 304.416 337.728 280.456 358.188 259.457C378.649 237.92 403.147 220.96 431.684 208.576C460.759 196.192 493.873 190 531.024 190ZM344 24C348.418 24 352 27.5817 352 32V112C352 116.418 348.418 120 344 120H104C99.5817 120 96 123.582 96 128V288C96 292.418 99.5817 296 104 296H240C244.418 296 248 299.582 248 304V360C248 364.418 244.418 368 240 368H104C99.5817 368 96 371.582 96 376V634C96 638.418 92.4183 642 88 642H8C3.58172 642 0 638.418 0 634V456C2.47314e-06 410.778 31.2689 372.859 73.3652 362.685C77.1633 361.767 79.9999 358.466 80 354.559V309.44C79.9999 305.533 77.1633 302.232 73.3652 301.314C31.2688 291.14 0 253.222 0 208V124C0 119.582 3.58172 116 8 116H73C77.4183 116 81 112.418 81 108V32C81 27.5817 84.5817 24 89 24H344ZM1263 40C1267.42 40 1271 43.5817 1271 48V200C1271 204.418 1274.58 208 1279 208H1416.76C1421.18 208 1424.76 211.582 1424.76 216V272C1424.76 276.418 1421.18 280 1416.76 280H1279C1274.58 280 1271 283.582 1271 288V562C1271 566.418 1274.58 570 1279 570H1416.76C1421.18 570 1424.76 573.582 1424.76 578V634C1424.76 638.418 1421.18 642 1416.76 642H1264.86C1264.81 642 1264.76 641.954 1264.76 641.896C1264.76 641.842 1264.72 641.798 1264.66 641.794C1214.6 638.531 1175 596.89 1175 546V288C1175 283.582 1171.42 280 1167 280H1096.76C1092.34 280 1088.76 276.418 1088.76 272V216C1088.76 211.582 1092.34 208 1096.76 208H1167C1171.42 208 1175 204.418 1175 200V48C1175 43.5817 1178.58 40 1183 40H1263ZM1589 207.999C1606.67 207.999 1621 222.326 1621 239.999V633.999C1621 638.417 1617.42 641.999 1613 641.999H1533C1528.58 641.999 1525 638.417 1525 633.999V288C1525 283.582 1521.42 280 1517 280H1474.76C1470.34 280 1466.76 276.418 1466.76 272V216C1466.76 211.582 1470.34 208 1474.76 208H1525L1525 207.999H1589ZM1038.76 208C1043.18 208 1046.76 211.582 1046.76 216V272C1046.76 276.418 1043.18 280 1038.76 280H911C906.582 280 903 283.582 903 288V632C903 636.418 899.418 640 895 640H815C810.582 640 807 636.418 807 632V291C807 245.16 844.16 208 890 208H1038.76ZM531.024 269.957C501.411 269.957 475.835 276.687 454.298 290.147C432.761 303.07 416.339 321.107 405.032 344.26C393.725 366.874 388.071 392.988 388.071 422.602C388.071 451.138 393.456 476.982 404.225 500.135C415.532 522.749 431.684 540.786 452.683 554.247C474.22 567.169 500.334 573.63 531.024 573.63C561.176 573.63 586.751 567.169 607.75 554.247C629.287 540.786 645.71 522.749 657.017 500.135C668.323 476.983 673.977 451.138 673.977 422.602C673.977 392.988 668.054 366.874 656.209 344.26C644.902 321.107 628.48 303.07 606.942 290.147C585.944 276.687 560.638 269.957 531.024 269.957ZM2652.26 104.694C2654.88 104.694 2657 106.814 2657 109.429V142.571C2657 145.186 2654.88 147.306 2652.26 147.306H2642.78C2600.89 147.306 2566.94 181.223 2566.94 223.062V237.266C2566.94 239.88 2564.82 242 2562.2 242H2524.8C2522.18 242 2520.06 239.88 2520.06 237.266V199.388C2520.06 172.623 2538.59 150.182 2563.53 144.16C2565.78 143.617 2567.46 141.663 2567.46 139.351V109.429C2567.46 106.814 2569.58 104.694 2572.2 104.694H2652.26ZM1546.26 39C1579.12 39 1605.76 65.6391 1605.76 98.5C1605.76 131.361 1579.12 158 1546.26 158C1513.4 158 1486.76 131.361 1486.76 98.5C1486.76 65.6391 1513.4 39 1546.26 39ZM2562.2 0C2564.82 0.000111194 2566.94 2.11968 2566.94 4.73438V42.6123C2566.94 69.3765 2548.41 91.8181 2523.47 97.8398C2521.22 98.3833 2519.54 100.337 2519.54 102.649V132.571C2519.54 135.186 2517.42 137.306 2514.8 137.306H2434.74C2432.12 137.306 2430 135.186 2430 132.571V99.4287C2430 96.8138 2432.12 94.6943 2434.74 94.6943H2444.22C2486.1 94.6943 2520.06 60.7769 2520.06 18.9385V4.73438C2520.06 2.11968 2522.18 9.88399e-05 2524.8 0H2562.2Z" fill="#0066FF"/>
</svg>
