<svg width="120" height="26" viewBox="0 0 120 26" fill="none" xmlns="http://www.w3.org/2000/svg">
<g clip-path="url(#clip0_114_166)">
<path d="M13.7672 18.3389V6.92089C13.7672 6.88189 13.7672 6.84289 13.7672 6.80089C13.7672 6.48263 13.6408 6.17741 13.4157 5.95236C13.1907 5.72732 12.8854 5.60089 12.5672 5.60089C12.2489 5.60089 11.9437 5.72732 11.7187 5.95236C11.4936 6.17741 11.3672 6.48263 11.3672 6.80089V18.3479C11.3672 18.3479 11.3672 18.3719 11.3672 18.3809C11.3672 18.6992 11.4936 19.0044 11.7187 19.2294C11.9437 19.4545 12.2489 19.5809 12.5672 19.5809C12.8854 19.5809 13.1907 19.4545 13.4157 19.2294C13.6408 19.0044 13.7672 18.6992 13.7672 18.3809C13.7684 18.3699 13.7684 18.3589 13.7672 18.3479V18.3389Z" fill="#8BA3B0"/>
<path d="M5.61632 11.5498C4.84183 11.2803 4.08529 10.9616 3.35132 10.5958C3.04216 10.4379 2.76935 10.2172 2.55032 9.94783C2.39045 9.72105 2.30931 9.44812 2.31932 9.17083C2.3168 8.95614 2.3734 8.74488 2.48294 8.56021C2.59247 8.37554 2.75071 8.22457 2.94032 8.12383C3.38432 7.84783 4.06232 7.70983 4.95932 7.70983C5.99574 7.77418 7.01736 7.9884 7.99232 8.34583C8.05837 8.36986 8.12674 8.38695 8.19632 8.39683C8.3342 8.46066 8.48408 8.49442 8.63601 8.49587C8.78794 8.49732 8.93844 8.46642 9.07751 8.40524C9.21658 8.34406 9.34104 8.25399 9.44263 8.14101C9.54422 8.02803 9.6206 7.89473 9.66671 7.74996C9.71282 7.60519 9.72761 7.45227 9.71008 7.30135C9.69255 7.15043 9.64311 7.00496 9.56504 6.87462C9.48697 6.74427 9.38207 6.63203 9.25729 6.54534C9.13251 6.45866 8.99072 6.39951 8.84132 6.37183C8.79723 6.34253 8.74992 6.31837 8.70032 6.29983C7.53908 5.90487 6.32615 5.6825 5.10032 5.63983C3.94943 5.59824 2.80708 5.85232 1.78232 6.37783C1.14276 6.74378 0.636515 7.30407 0.337101 7.97735C0.0376872 8.65063 -0.0392989 9.40182 0.117324 10.1218C0.180704 10.4105 0.287949 10.6877 0.435324 10.9438C0.73662 11.4365 1.14721 11.8532 1.63532 12.1618C2.47036 12.6501 3.3529 13.0522 4.26932 13.3618C5.52632 13.8448 6.36932 14.2618 6.79832 14.6128C6.99477 14.7611 7.1517 14.9555 7.25528 15.1788C7.35886 15.402 7.40591 15.6474 7.39227 15.8931C7.37864 16.1389 7.30474 16.3775 7.17709 16.5879C7.04944 16.7984 6.87197 16.9742 6.66032 17.0998C6.13832 17.3998 5.37032 17.5678 4.37432 17.5678C3.6889 17.5629 3.00672 17.4733 2.34332 17.3008C2.04332 17.2258 1.76732 17.1418 1.49732 17.0458H1.50032C1.36752 16.9891 1.22472 16.9595 1.08032 16.9588C0.813058 16.9582 0.555218 17.0575 0.357448 17.2373C0.159677 17.4171 0.0362687 17.6643 0.0114616 17.9304C-0.0133455 18.1965 0.0622416 18.4623 0.223376 18.6755C0.384511 18.8888 0.619549 19.034 0.882324 19.0828C1.992 19.4614 3.16027 19.6392 4.33232 19.6078C6.00932 19.6078 7.33232 19.2598 8.27132 18.5758C8.73855 18.2376 9.11444 17.7886 9.36526 17.2691C9.61607 16.7497 9.73396 16.1761 9.70832 15.5998C9.73325 14.7475 9.41933 13.9201 8.83532 13.2988C8.26532 12.7048 7.20032 12.1318 5.61632 11.5498Z" fill="#8BA3B0"/>
<path d="M72.7324 11.5229C71.9579 11.2534 71.2014 10.9347 70.4674 10.5689C70.1588 10.4101 69.8862 10.1895 69.6664 9.92093C69.5079 9.69348 69.4269 9.42102 69.4354 9.14393C69.4334 8.92974 69.4903 8.71912 69.5998 8.53502C69.7093 8.35093 69.8672 8.20043 70.0564 8.09993C70.5004 7.82393 71.1814 7.68593 72.0754 7.68593C73.1119 7.74968 74.1336 7.96393 75.1084 8.32193C75.1744 8.34595 75.2428 8.36305 75.3124 8.37293C75.4499 8.43426 75.5988 8.46589 75.7494 8.46577C75.9 8.46566 76.0489 8.43378 76.1863 8.37224C76.3237 8.3107 76.4466 8.22087 76.547 8.10861C76.6474 7.99635 76.7229 7.86419 76.7687 7.72075C76.8146 7.57731 76.8296 7.42582 76.813 7.27617C76.7963 7.12651 76.7483 6.98206 76.672 6.85223C76.5957 6.72239 76.4929 6.61011 76.3703 6.5227C76.2477 6.43529 76.108 6.37471 75.9604 6.34493C75.9158 6.32188 75.8697 6.30184 75.8224 6.28493C74.6611 5.88997 73.4482 5.6676 72.2224 5.62493C71.0713 5.58004 69.9279 5.83103 68.9014 6.35393C68.2625 6.72057 67.7568 7.28096 67.4575 7.95403C67.1582 8.6271 67.0807 9.37794 67.2364 10.0979C67.2998 10.3866 67.407 10.6638 67.5544 10.9199C67.8557 11.4126 68.2663 11.8293 68.7544 12.1379C69.5894 12.6262 70.472 13.0283 71.3884 13.3379C72.6454 13.8209 73.4884 14.2379 73.9174 14.5889C74.114 14.7378 74.2709 14.9329 74.3742 15.1569C74.4774 15.381 74.5238 15.627 74.5093 15.8732C74.4948 16.1195 74.4197 16.3583 74.2908 16.5686C74.162 16.7789 73.9832 16.9542 73.7704 17.0789C73.2484 17.3789 72.4804 17.5469 71.4874 17.5469C70.801 17.5422 70.1178 17.4525 69.4534 17.2799C69.1534 17.2049 68.8774 17.1209 68.6074 17.0249C68.4689 16.9654 68.3195 16.9357 68.1688 16.9379C68.0181 16.9401 67.8696 16.9741 67.7329 17.0376C67.5962 17.1011 67.4745 17.1927 67.3757 17.3065C67.2769 17.4203 67.2032 17.5537 67.1594 17.6979C67.1157 17.8421 67.1028 17.9939 67.1218 18.1434C67.1407 18.2929 67.191 18.4368 67.2693 18.5655C67.3477 18.6943 67.4523 18.805 67.5764 18.8906C67.7005 18.9761 67.8412 19.0345 67.9894 19.0619C69.1 19.4407 70.2693 19.6185 71.4424 19.5869C73.1164 19.5869 74.4424 19.2389 75.3784 18.5549C75.8475 18.2174 76.2252 17.7683 76.4771 17.2482C76.7291 16.728 76.8474 16.1533 76.8214 15.5759C76.8475 14.724 76.5346 13.8965 75.9514 13.2749C75.3814 12.6779 74.3284 12.1049 72.7324 11.5229Z" fill="#8BA3B0"/>
<path d="M52.1998 1.2C52.1998 1.2 52.1998 1.2 52.1998 1.179C52.1998 0.860744 52.0734 0.555519 51.8483 0.330476C51.6233 0.105432 51.3181 -0.0209961 50.9998 -0.0209961C50.6815 -0.0209961 50.3763 0.105432 50.1513 0.330476C49.9262 0.555519 49.7998 0.860744 49.7998 1.179V18.354C49.7998 18.6723 49.9262 18.9775 50.1513 19.2025C50.3763 19.4276 50.6815 19.554 50.9998 19.554C51.3181 19.554 51.6233 19.4276 51.8483 19.2025C52.0734 18.9775 52.1998 18.6723 52.1998 18.354C52.1998 18.354 52.1998 1.215 52.1998 1.2Z" fill="#8BA3B0"/>
<path d="M33.1802 6.89997C32.4062 6.10497 31.4102 5.60697 29.8802 5.60697H29.3312C29.2712 5.60697 29.2112 5.60697 29.1482 5.60697C28.3505 5.60602 27.5626 5.7833 26.8422 6.12586C26.1218 6.46843 25.487 6.96762 24.9842 7.58697C24.1357 6.54623 22.9286 5.8605 21.6002 5.66454C20.2718 5.46858 18.9181 5.77657 17.8052 6.52797C17.7416 6.26775 17.5927 6.0363 17.3823 5.87048C17.1719 5.70466 16.9121 5.61401 16.6442 5.61297H16.5842H16.5302C16.3888 5.61258 16.2486 5.64004 16.1178 5.6938C15.987 5.74757 15.868 5.82657 15.7678 5.9263C15.6675 6.02603 15.5878 6.14453 15.5333 6.27505C15.4788 6.40557 15.4506 6.54554 15.4502 6.68697V18.45C15.4508 18.6623 15.5141 18.8698 15.632 19.0464C15.7499 19.223 15.9173 19.361 16.1132 19.443C16.2781 19.5257 16.4597 19.5698 16.6442 19.572C16.8838 19.5716 17.1179 19.4995 17.3162 19.365C17.4718 19.2711 17.601 19.1393 17.6918 18.9819C17.7825 18.8245 17.8319 18.6466 17.8352 18.465V18.438C17.8352 18.438 17.8352 18.411 17.8352 18.396C17.8352 18.381 17.8352 18.369 17.8352 18.354V15.393V10.941C17.8352 10.893 17.8352 10.848 17.8352 10.8C17.836 10.4103 17.9135 10.0247 18.0633 9.66501C18.2132 9.30533 18.4324 8.9787 18.7085 8.70374C18.9845 8.42879 19.312 8.2109 19.6723 8.06252C20.0326 7.91415 20.4186 7.83818 20.8082 7.83897C20.9012 7.83897 20.9912 7.83897 21.0812 7.83897H21.1922L21.3242 7.85997L21.5102 7.89897H21.5342C22.0298 8.02731 22.4838 8.28184 22.8518 8.63777C23.2198 8.9937 23.4894 9.43889 23.6342 9.92997C23.7032 10.2156 23.7473 10.5067 23.7662 10.8C23.77 10.8264 23.776 10.8525 23.7842 10.878V18.45C23.785 18.6639 23.8493 18.8727 23.9689 19.05C24.0885 19.2274 24.2581 19.3652 24.4562 19.446C24.6194 19.5273 24.7989 19.5704 24.9812 19.572C25.2245 19.5717 25.462 19.4974 25.6622 19.359C25.7901 19.278 25.8995 19.1709 25.9832 19.0448C26.067 18.9187 26.1232 18.7763 26.1482 18.627C26.1662 18.5462 26.1753 18.4637 26.1752 18.381C26.1767 18.355 26.1767 18.3289 26.1752 18.303V15.384H26.1932V11.283C26.2087 10.556 26.3774 9.84039 26.6882 9.18297C27.0836 8.58193 27.6838 8.14487 28.3772 7.95297L28.4612 7.93197C28.5422 7.91397 28.6202 7.89897 28.7012 7.88697L28.8242 7.86597H29.0552H29.1572C29.9384 7.86592 30.6881 8.17398 31.2436 8.72329C31.7991 9.27259 32.1155 10.0188 32.1242 10.8V15.39V18.342C32.1242 18.342 32.1242 18.369 32.1242 18.384C32.1242 18.399 32.1242 18.411 32.1242 18.426V18.453C32.1269 18.6344 32.1757 18.8122 32.2659 18.9696C32.3562 19.127 32.485 19.259 32.6402 19.353C32.8149 19.4722 33.0185 19.5423 33.2295 19.556C33.4406 19.5697 33.6515 19.5265 33.8402 19.431C34.0337 19.3493 34.1991 19.213 34.3164 19.0388C34.4336 18.8646 34.4975 18.6599 34.5002 18.45V10.581C34.5002 8.87097 33.9512 7.69797 33.1802 6.89997Z" fill="#8BA3B0"/>
<path d="M48.0325 10.5781C47.8035 9.18636 47.0843 7.92246 46.0049 7.01467C44.9254 6.10688 43.5569 5.61506 42.1465 5.62806C40.8601 5.62583 39.6069 6.03588 38.5705 6.79806C38.5348 6.50507 38.3923 6.23555 38.1703 6.04101C37.9483 5.84647 37.6625 5.74056 37.3673 5.74353C37.0722 5.7465 36.7885 5.85814 36.5705 6.05711C36.3524 6.25608 36.2154 6.52841 36.1855 6.82206V23.9671C36.1855 24.2853 36.312 24.5905 36.537 24.8156C36.7621 25.0406 37.0673 25.1671 37.3855 25.1671C37.7038 25.1671 38.009 25.0406 38.2341 24.8156C38.4591 24.5905 38.5855 24.2853 38.5855 23.9671V18.3901C39.6192 19.1532 40.8706 19.5644 42.1555 19.5631C43.5427 19.5673 44.8874 19.0847 45.9554 18.1994C47.0233 17.314 47.7467 16.082 47.9995 14.7181C48.0933 14.037 48.1414 13.3505 48.1435 12.6631C48.1449 11.9665 48.1078 11.2705 48.0325 10.5781ZM45.5485 14.6131C45.3533 15.4241 44.8752 16.1389 44.2 16.629C43.5249 17.119 42.697 17.352 41.8654 17.2862C41.0338 17.2204 40.2529 16.8601 39.6632 16.27C39.0736 15.6799 38.7138 14.8987 38.6485 14.0671V11.2381C38.6946 10.3784 39.0555 9.56573 39.6624 8.95515C40.2693 8.34457 41.0798 7.9788 41.9392 7.92761C42.7986 7.87643 43.6468 8.14341 44.3219 8.67763C44.997 9.21185 45.4518 9.97592 45.5995 10.8241C45.6206 10.9611 45.6326 11.0994 45.6355 11.2381C45.6799 11.7147 45.6999 12.1934 45.6955 12.6721C45.7021 13.3221 45.6529 13.9715 45.5485 14.6131Z" fill="#8BA3B0"/>
<path d="M65.9129 11.2379C65.8422 9.71345 65.1818 8.2761 64.0713 7.22936C62.9607 6.18261 61.4868 5.60839 59.9608 5.62792C57.8788 5.62792 55.8538 6.55192 54.9838 8.23792C54.2936 9.54249 53.9224 10.9921 53.9008 12.4679C53.8717 14.08 54.2869 15.6691 55.1008 17.0609C55.9618 18.5369 58.0348 19.5119 59.6518 19.5479C61.6438 19.5929 62.7989 19.5479 64.1818 18.9059C64.3236 18.8208 64.4554 18.7202 64.5748 18.6059C64.6814 18.4797 64.7602 18.3325 64.8062 18.1738C64.8522 18.0151 64.8644 17.8486 64.8418 17.6849C64.8316 17.5333 64.7882 17.3858 64.7145 17.2529C64.6409 17.1199 64.5389 17.0048 64.4157 16.9158C64.2926 16.8267 64.1514 16.7659 64.0021 16.7376C63.8528 16.7092 63.699 16.7141 63.5518 16.7519C61.9618 17.2229 61.9619 17.2229 60.1049 17.2229C58.2478 17.2229 56.5948 15.7649 56.5048 13.9229C56.5048 13.8719 56.5048 13.7399 56.5048 13.7279H64.7338C65.0521 13.7279 65.3573 13.6015 65.5824 13.3765C65.8074 13.1514 65.9338 12.8462 65.9338 12.5279L65.9129 11.2379ZM59.9608 7.91392C60.8754 7.91311 61.7531 8.27421 62.4023 8.91836C63.0516 9.56252 63.4195 10.4374 63.4258 11.3519H56.4988C56.5036 10.4374 56.8706 9.56208 57.5196 8.91767C58.1685 8.27326 59.0463 7.91232 59.9608 7.91392Z" fill="#8BA3B0"/>
<path d="M111.477 11.2379C111.407 9.71345 110.746 8.2761 109.636 7.22936C108.525 6.18261 107.051 5.60839 105.525 5.62792C103.443 5.62792 101.418 6.55192 100.548 8.23792C99.858 9.54249 99.4869 10.9921 99.4653 12.4679C99.4362 14.08 99.8513 15.6691 100.665 17.0609C101.526 18.5369 103.596 19.5119 105.216 19.5479C107.208 19.5929 108.36 19.5479 109.746 18.9059C109.888 18.8208 110.02 18.7202 110.139 18.6059C110.246 18.4797 110.325 18.3325 110.371 18.1738C110.417 18.0151 110.429 17.8486 110.406 17.6849C110.396 17.5333 110.353 17.3858 110.279 17.2529C110.205 17.1199 110.103 17.0048 109.98 16.9158C109.857 16.8267 109.716 16.7659 109.567 16.7376C109.417 16.7092 109.264 16.7141 109.116 16.7519C107.526 17.2229 107.526 17.2229 105.669 17.2229C103.812 17.2229 102.159 15.7649 102.069 13.9229C102.069 13.8719 102.069 13.7399 102.069 13.7279H110.298C110.617 13.7279 110.922 13.6015 111.147 13.3765C111.372 13.1514 111.498 12.8462 111.498 12.5279L111.477 11.2379ZM105.525 7.91392C106.44 7.91232 107.318 8.27326 107.967 8.91767C108.616 9.56208 108.983 10.4374 108.987 11.3519H102.063C102.068 10.4374 102.435 9.56208 103.084 8.91767C103.733 8.27326 104.611 7.91232 105.525 7.91392Z" fill="#8BA3B0"/>
<path d="M87.2996 13.65L88.6796 11.271L85.7486 6.21299C85.5771 5.9643 85.3182 5.78941 85.0235 5.72321C84.7288 5.65701 84.42 5.70438 84.1587 5.85587C83.8974 6.00735 83.7028 6.25181 83.6138 6.54044C83.5248 6.82907 83.5479 7.14065 83.6786 7.41299L87.2996 13.65Z" fill="#44BCCB"/>
<path d="M87.3 13.65L83.004 6.21602C82.8308 5.97182 82.5725 5.80118 82.28 5.73762C81.9874 5.67406 81.6816 5.72216 81.4227 5.87248C81.1638 6.0228 80.9704 6.26447 80.8805 6.55006C80.7907 6.83565 80.8108 7.14451 80.937 7.41602L85.935 16.038L87.3 13.65Z" fill="#F7A42D"/>
<path d="M85.9351 16.0289L80.2741 6.26089C80.126 5.99643 79.8857 5.7958 79.599 5.6973C79.3124 5.59879 78.9995 5.60933 78.7201 5.72689C78.5697 5.79657 78.4353 5.89667 78.3254 6.02088C78.2156 6.14509 78.1327 6.29071 78.082 6.44856C78.0312 6.60641 78.0138 6.77306 78.0307 6.938C78.0475 7.10294 78.0984 7.2626 78.1801 7.40689L83.5261 16.6289C83.6325 16.8073 83.7835 16.955 83.9641 17.0575C84.1447 17.1601 84.3489 17.214 84.5566 17.214C84.7643 17.214 84.9685 17.1601 85.1491 17.0575C85.3298 16.955 85.4807 16.8073 85.5871 16.6289L85.9351 16.0289Z" fill="#EA515B"/>
<path d="M96.0004 5.78091C95.726 5.62371 95.4005 5.58122 95.0949 5.66268C94.7893 5.74414 94.5282 5.94296 94.3684 6.21591L86.9794 18.9839C86.8742 19.1662 86.7229 19.3175 86.5407 19.4228C86.3585 19.5281 86.1518 19.5837 85.9414 19.5839H88.7044C88.7769 19.5829 88.8491 19.5758 88.9204 19.5629H88.9564C89.0991 19.5334 89.2346 19.4763 89.3554 19.3949H89.3734C89.4922 19.3156 89.5941 19.2137 89.6734 19.0949L89.7004 19.0559L89.7304 19.0139L96.4534 7.41291C96.6091 7.13628 96.6489 6.80923 96.564 6.50335C96.4791 6.19748 96.2764 5.9377 96.0004 5.78091Z" fill="#E53E4C"/>
<path d="M98.7662 5.78091C98.4918 5.62371 98.1664 5.58122 97.8608 5.66268C97.5551 5.74414 97.294 5.94296 97.1342 6.21591L89.7362 18.9839C89.631 19.1662 89.4797 19.3175 89.2975 19.4228C89.1154 19.5281 88.9087 19.5837 88.6982 19.5839H91.5002C91.6491 19.5838 91.7965 19.5544 91.9339 19.4973C92.0714 19.4401 92.1962 19.3564 92.3012 19.2509C92.4207 19.1362 92.5156 18.9984 92.5802 18.8459L99.2162 7.39491C99.3666 7.12034 99.4036 6.79789 99.3196 6.49637C99.2355 6.19484 99.0369 5.9381 98.7662 5.78091Z" fill="#008ECE"/>
<path d="M118.74 17.2229C118.725 17.2229 118.221 17.2409 117.63 17.2409C116.292 17.2409 116.202 16.3679 116.202 15.2909C116.202 15.2909 116.202 8.56494 116.202 8.51694C116.202 8.43041 116.22 8.34473 116.253 8.26483C116.286 8.18492 116.335 8.11236 116.396 8.05131C116.457 7.99026 116.53 7.94193 116.61 7.90909C116.69 7.87625 116.776 7.85955 116.862 7.85995H118.875C119.028 7.86782 119.18 7.8446 119.323 7.7917C119.467 7.7388 119.598 7.65732 119.708 7.55221C119.819 7.44711 119.907 7.32059 119.967 7.18035C120.027 7.0401 120.059 6.88907 120.059 6.73644C120.059 6.58382 120.027 6.43279 119.967 6.29254C119.907 6.1523 119.819 6.02578 119.708 5.92068C119.598 5.81557 119.467 5.73409 119.323 5.68119C119.18 5.62828 119.028 5.60507 118.875 5.61294H116.862C116.776 5.61334 116.69 5.59664 116.61 5.5638C116.53 5.53096 116.457 5.48263 116.396 5.42158C116.335 5.36053 116.286 5.28797 116.253 5.20806C116.22 5.12816 116.202 5.04248 116.202 4.95595C116.202 4.95595 116.223 3.66594 116.223 3.60594C116.223 3.28769 116.097 2.98246 115.872 2.75742C115.647 2.53237 115.342 2.40594 115.023 2.40594C114.705 2.40594 114.4 2.53237 114.175 2.75742C113.95 2.98246 113.823 3.28769 113.823 3.60594V4.95595C113.823 5.11992 113.761 5.27783 113.65 5.39841C113.539 5.51898 113.387 5.59341 113.223 5.60695H112.599C112.303 5.60695 112.018 5.72484 111.808 5.93469C111.598 6.14455 111.48 6.42917 111.48 6.72594C111.48 7.02272 111.598 7.30734 111.808 7.5172C112.018 7.72705 112.303 7.84494 112.599 7.84494H113.163C113.25 7.84455 113.336 7.86125 113.416 7.89409C113.496 7.92693 113.569 7.97526 113.63 8.03631C113.691 8.09736 113.74 8.16992 113.773 8.24983C113.806 8.32973 113.823 8.41541 113.823 8.50195C113.823 8.57995 113.823 15.3599 113.823 15.3599C113.823 18.1379 115.137 19.5809 117.789 19.5809C118.177 19.5805 118.564 19.5534 118.947 19.4999H118.965C119.279 19.4588 119.564 19.2954 119.758 19.0454C119.951 18.7954 120.039 18.479 120 18.1649C119.956 17.8741 119.799 17.6123 119.563 17.4361C119.328 17.2599 119.032 17.1834 118.74 17.2229Z" fill="#8BA3B0"/>
</g>
<defs>
<clipPath id="clip0_114_166">
<rect width="120" height="25.218" fill="white"/>
</clipPath>
</defs>
</svg>
